:SAMPLES-PER-SECOND 30
:FULLY-SPECIFIED
:DEGREES
214
root  40.9262 33.4803 -65.5563 0.988786 -41.5886 -0.107044
RightUpLeg  -7.29049 -5.35191 -0.581108
RightLeg  16.8623 -7.07779 -1.65133
RightFoot  -0.635527 -0.0359274 0.0534415
RightToes  -25.7877 -0.116017 -0.220746
Spine  6.10981 -2.28517 0.572415
Spine1  10.9842 -4.64291 0.776816
HEad  2.07474 5.89098 1.75935
LeftShoulder1  0 -2.42657e-020 -4.95415e-022
LeftArm  17.0474 -10.4758 -68.1339
LeftForeArm  138.935 -79.8642 -95.9781
LeftHand  -1.40648 -5.96951 26.1529
RightShoulder  0 2.42657e-020 1.07489e-018
RightArm  12.2117 -14.5657 63.57
RightForeArm  -151.737 70.1592 150.386
RightHand  -7.08796 10.5891 -67.173
LeftUpLeg  -9.69146 -1.75197 1.49691
LeftLeg  21.4007 -1.4543 -0.467137
LeftFoot  -2.55855 -0.00655452 0.0121168
LeftToes  -11.4381 8.72033e-007 1.17809e-007
215
root  40.9754 33.4965 -65.4888 1.30189 -39.8501 -0.184925
RightUpLeg  -7.05405 -7.49502 -0.774465
RightLeg  16.4166 -6.65988 -1.49986
RightFoot  -0.553513 -0.0343197 0.0446327
RightToes  -25.5469 -0.117137 -0.221807
Spine  6.19292 -2.26492 0.636887
Spine1  10.9547 -4.62343 0.91109
HEad  1.59756 5.82939 2.28019
LeftShoulder1  0 -2.42657e-020 -4.95415e-022
LeftArm  15.176 -16.4568 -66.3906
LeftForeArm  156.24 -79.1597 -111.706
LeftHand  -1.73962 -6.71014 28.6969
RightShoulder  0 2.42657e-020 1.07489e-018
RightArm  9.66501 -11.7385 64.4093
RightForeArm  -143.232 68.0601 153.74
RightHand  -6.77179 9.38772 -71.2184
LeftUpLeg  -10.1935 -2.94466 1.39356
LeftLeg  21.3554 -1.89587 -0.606493
LeftFoot  -2.33779 -0.00700457 0.0244249
LeftToes  -10.9798 8.72033e-007 1.17809e-007
216
root  41.0197 33.5305 -65.4136 1.59957 -38.1168 -0.17449
RightUpLeg  -6.59364 -8.992 -0.959619
RightLeg  15.525 -6.90166 -1.4416
RightFoot  -0.244686 -0.0314173 0.0163283
RightToes  -25.6676 -0.118138 -0.222857
Spine  6.13853 -2.13634 0.691208
Spine1  10.6494 -4.36376 0.995344
HEad  1.67023 5.13374 2.80272
LeftShoulder1  0 -2.42657e-020 -4.95415e-022
LeftArm  12.3532 -22.6152 -65.2863
LeftForeArm  164.597 -78.5504 -118.53
LeftHand  -2.04473 -7.47706 30.2076
RightShoulder  0 2.42657e-020 1.07489e-018
RightArm  6.38387 -7.63987 65.4336
RightForeArm  -138.18 66.9958 155.195
RightHand  -6.55079 8.75728 -73.2195
LeftUpLeg  -10.5577 -4.20274 1.23963
LeftLeg  21.0084 -2.29119 -0.717057
LeftFoot  -1.88449 -0.00676971 0.0263952
LeftToes  -10.818 8.72033e-007 1.17809e-007
217
root  41.0535 33.5801 -65.3303 1.8829 -36.6319 -0.156347
RightUpLeg  -5.92366 -9.96911 -1.10792
RightLeg  14.2326 -7.42811 -1.37702
RightFoot  0.313185 -0.0264892 -0.0428154
RightToes  -26.0964 -0.119057 -0.223947
Spine  5.9155 -1.8626 0.60433
Spine1  10.0383 -3.74218 0.72444
HEad  2.66546 4.49751 3.82228
LeftShoulder1  0 -2.42657e-020 -4.95415e-022
LeftArm  8.14373 -28.6072 -65.0955
LeftForeArm  161.931 -78.9627 -114.259
LeftHand  -2.28668 -8.69804 29.0608
RightShoulder  0 2.42657e-020 1.07489e-018
RightArm  2.65098 -1.89184 66.682
RightForeArm  -137.352 68.165 153.642
RightHand  -6.37572 8.40664 -73.985
LeftUpLeg  -10.6805 -5.32952 1.09182
LeftLeg  20.3445 -2.56822 -0.770783
LeftFoot  -1.34696 -0.00615566 0.022783
LeftToes  -10.6437 8.72033e-007 1.17809e-007
218
root  41.0905 33.6576 -65.2562 2.21581 -35.8014 -0.245068
RightUpLeg  -5.14162 -11.4538 -1.23829
RightLeg  12.4822 -6.76999 -1.04309
RightFoot  1.20656 -0.0202123 -0.122284
RightToes  -26.2565 -0.119929 -0.225125
Spine  5.50582 -1.33018 0.516687
Spine1  9.14797 -2.57434 0.461835
HEad  4.33058 3.79496 4.75631
LeftShoulder1  0 -2.42657e-020 -4.95415e-022
LeftArm  3.12409 -33.2338 -66.9837
LeftForeArm  144.984 -79.8954 -94.9614
LeftHand  -2.28262 -9.29983 27.1756
RightShoulder  0 2.42657e-020 1.07489e-018
RightArm  -2.48505 6.46757 68.8073
RightForeArm  -146.193 73.3151 143.702
RightHand  -6.69387 8.9164 -73.4154
LeftUpLeg  -10.4342 -6.01211 1.04355
LeftLeg  19.1871 -2.65743 -0.739191
LeftFoot  -0.711676 -0.00523414 0.0147077
LeftToes  -10.4426 8.72033e-007 1.17809e-007
219
root  41.1408 33.7279 -65.1768 2.26499 -35.788 -0.193476
RightUpLeg  -4.37377 -11.102 -1.38528
RightLeg  10.9332 -7.14814 -0.904327
RightFoot  2.05337 -0.012545 -0.222722
RightToes  -26.4587 -0.120794 -0.226433
Spine  4.98014 -0.782569 0.345653
Spine1  8.13726 -1.41816 0.166403
HEad  6.49315 3.50737 5.02687
LeftShoulder1  0 -2.42657e-020 -4.95415e-022
LeftArm  -1.82762 -35.5301 -69.6642
LeftForeArm  114.497 -79.2008 -68.4718
LeftHand  -1.79608 -8.2152 24.2758
RightShoulder  0 2.42657e-020 1.07489e-018
RightArm  -6.70871 17.8432 71.9784
RightForeArm  160.265 79.9741 91.2608
RightHand  -7.60874 11.3886 -67.057
LeftUpLeg  -9.75903 -6.03548 0.860397
LeftLeg  17.8273 -2.64454 -0.668322
LeftFoot  -0.0869143 -0.00422292 0.00555799
LeftToes  -10.3666 8.72033e-007 1.17809e-007
220
root  41.1745 33.7864 -65.0948 2.13786 -36.4431 -0.156577
RightUpLeg  -3.73107 -10.379 -1.54038
RightLeg  9.80447 -7.19911 -0.767301
RightFoot  2.80741 -0.00565509 -0.310458
RightToes  -26.6962 -0.121687 -0.227832
Spine  4.50838 -0.243801 0.151452
Spine1  7.23702 -0.339892 -0.0667791
HEad  9.08238 3.464 4.71497
LeftShoulder1  0 -2.42657e-020 -4.95415e-022
LeftArm  -5.93408 -35.901 -71.5301
LeftForeArm  87.2358 -77.765 -55.0223
LeftHand  -1.08825 -5.50295 22.0136
RightShoulder  0 2.42657e-020 1.07489e-018
RightArm  -8.32524 29.1872 74.9396
RightForeArm  96.4535 71.8721 32.5726
RightHand  -8.46835 16.0536 -55.0482
LeftUpLeg  -8.84353 -5.23283 0.703131
LeftLeg  16.5921 -2.7841 -0.639833
LeftFoot  0.367097 -0.00317905 -0.00377497
LeftToes  -10.3227 8.72033e-007 1.17809e-007
221
root  41.2051 33.8249 -65.01 2.08226 -36.8198 -0.136515
RightUpLeg  -3.32458 -9.95059 -1.68418
RightLeg  9.12363 -7.21377 -0.682477
RightFoot  3.26232 -0.00118831 -0.359926
RightToes  -26.7778 -0.122647 -0.229256
Spine  4.21528 0.210876 0.0413961
Spine1  6.73391 0.559872 -0.151949
HEad  10.604 3.40832 4.38987
LeftShoulder1  0 -2.42657e-020 -4.95415e-022
LeftArm  -10.0652 -34.3034 -72.9595
LeftForeArm  78.8459 -77.2783 -51.9343
LeftHand  -1.01914 -4.88682 23.2091
RightShoulder  0 2.42657e-020 1.07489e-018
RightArm  -9.93663 36.7473 76.655
RightForeArm  79.4806 65.5574 22.8199
RightHand  -7.10381 21.0272 -36.6269
LeftUpLeg  -8.19639 -4.75998 0.569231
LeftLeg  15.6797 -2.87971 -0.613537
LeftFoot  0.700907 -0.00235995 -0.00928595
LeftToes  -10.431 8.72033e-007 1.17809e-007
